<?xml version="1.0" encoding="UTF-8" standalone="no"?>
<svg
   xmlns:dc="http://purl.org/dc/elements/1.1/"
   xmlns:cc="http://creativecommons.org/ns#"
   xmlns:rdf="http://www.w3.org/1999/02/22-rdf-syntax-ns#"
   xmlns:svg="http://www.w3.org/2000/svg"
   xmlns="http://www.w3.org/2000/svg"
   viewBox="0 0 28.006533 33.641731"
   height="33.641731"
   width="28.006533"
   xml:space="preserve"
   id="svg2"
   version="1.1"><metadata
     id="metadata8"><rdf:RDF><cc:Work
         rdf:about=""><dc:format>image/svg+xml</dc:format><dc:type
           rdf:resource="http://purl.org/dc/dcmitype/StillImage" /></cc:Work></rdf:RDF></metadata><defs
     id="defs6"><clipPath
       id="clipPath22"
       clipPathUnits="userSpaceOnUse"><path
         id="path20"
         d="M 0,25.231 H 21.005 V 0 H 0 Z" /></clipPath></defs><g
     transform="matrix(1.3333333,0,0,-1.3333333,0,33.641733)"
     id="g10"><g
       transform="translate(8.1103,21.3729)"
       id="g12"><path
         id="path14"
         style="fill:#1d1d1d;fill-opacity:1;fill-rule:nonzero;stroke:none"
         d="M 0,0 4.781,-0.957 V -1.578 H 5.36 V -0.48 L -0.579,0.706 V -1.578 H 0 Z" /></g><g
       id="g16"><g
         clip-path="url(#clipPath22)"
         id="g18"><g
           transform="translate(12.1211,9.866)"
           id="g24"><path
             id="path26"
             style="fill:#1d1d1d;fill-opacity:1;fill-rule:nonzero;stroke:none"
             d="M 0,0 -1.195,1.593 1.115,2.98 2.303,2.763 Z M -4.011,3.449 V 4.86 l 0.325,-0.202 c 0.588,-0.365 1.26,-0.569 1.942,-0.59 l 0.126,-0.002 c 0.73,0 1.445,0.197 2.066,0.569 L 0.771,4.827 V 3.449 L -1.62,2.015 Z M -3.24,0 -5.543,2.763 -4.355,2.98 -2.045,1.593 Z m -1.84,8.119 -0.004,0.114 -1.07,1.068 v 3.631 c 0,1.022 0.832,1.854 1.854,1.854 h 5.36 c 1.022,0 1.854,-0.832 1.854,-1.854 V 9.301 L 1.842,8.229 V 8.108 C 1.842,7.163 1.469,6.28 0.791,5.624 0.139,4.991 -0.714,4.646 -1.62,4.646 c -0.036,0 -0.071,0 -0.107,0.001 -1.805,0.055 -3.278,1.58 -3.353,3.472 M 5.052,-9.859 H 8.884 L 8.791,-9.104 7.215,2.46 1.35,3.526 V 5.367 L 1.403,5.428 C 2.021,6.121 2.371,6.979 2.417,7.906 L 2.421,7.988 3.493,9.06 v 3.872 c 0,1.341 -1.092,2.433 -2.433,2.433 H -4.3 c -1.342,0 -2.433,-1.092 -2.433,-2.433 V 9.06 l 1.08,-1.078 0.007,-0.078 C -5.571,7.002 -5.224,6.165 -4.641,5.482 L -4.59,5.423 V 3.526 L -10.455,2.46 -12.121,-9.859 h 3.777 v 0.57 h -3.119 l 0.115,0.847 v -10e-4 l 0.048,0.416 1.363,9.992 1.063,0.193 0.003,-0.008 2.673,0.495 2.468,-2.963 -0.164,-0.136 h 1.039 l 1.235,1.647 1.235,-1.647 H 0.638 L 0.645,-0.446 0.49,-0.318 2.958,2.645 6.696,1.965 6.718,1.812 8.113,-8.426 8.109,-8.424 8.227,-9.289 H 5.066 Z" /></g><path
           id="path28"
           style="fill:none;stroke:#009e82;stroke-width:0.70899999;stroke-linecap:butt;stroke-linejoin:miter;stroke-miterlimit:10;stroke-dasharray:none;stroke-opacity:1"
           d="m 4.058,0.354 h 12.89 V 9.099 H 4.058 Z" /><g
           transform="translate(8.4248,4.7264)"
           id="g30"><path
             id="path32"
             style="fill:none;stroke:#009e82;stroke-width:0.70899999;stroke-linecap:butt;stroke-linejoin:miter;stroke-miterlimit:10;stroke-dasharray:none;stroke-opacity:1"
             d="M 0,0 H 4.156" /></g></g></g></g></svg>