<?xml version="1.0" encoding="UTF-8" standalone="no"?>
<svg
   xmlns:dc="http://purl.org/dc/elements/1.1/"
   xmlns:cc="http://creativecommons.org/ns#"
   xmlns:rdf="http://www.w3.org/1999/02/22-rdf-syntax-ns#"
   xmlns:svg="http://www.w3.org/2000/svg"
   xmlns="http://www.w3.org/2000/svg"
   viewBox="0 0 91.112 81.704399"
   height="81.704399"
   width="91.112"
   xml:space="preserve"
   id="svg2"
   version="1.1"><metadata
     id="metadata8"><rdf:RDF><cc:Work
         rdf:about=""><dc:format>image/svg+xml</dc:format><dc:type
           rdf:resource="http://purl.org/dc/dcmitype/StillImage" /></cc:Work></rdf:RDF></metadata><defs
     id="defs6"><clipPath
       id="clipPath18"
       clipPathUnits="userSpaceOnUse"><path
         id="path16"
         d="M 0,61.278 H 68.334 V 0 H 0 Z" /></clipPath></defs><g
     transform="matrix(1.3333333,0,0,-1.3333333,0,81.7044)"
     id="g10"><g
       id="g12"><g
         clip-path="url(#clipPath18)"
         id="g14"><g
           transform="translate(66.3336,6.6692)"
           id="g20"><path
             id="path22"
             style="fill:#171717;fill-opacity:1;fill-rule:nonzero;stroke:none"
             d="m 0,0 c 0,-2.574 -2.095,-4.669 -4.67,-4.669 h -38.362 -9.375 -7.257 c -2.575,0 -4.67,2.095 -4.67,4.669 v 36.662 c 0,2.574 2.095,4.669 4.67,4.669 H -4.67 c 2.575,0 4.67,-2.095 4.67,-4.669 z m -44.412,47.94 c 0,2.575 2.095,4.669 4.669,4.669 h 14.495 c 2.574,0 4.669,-2.094 4.669,-4.669 V 43.331 H -44.412 Z M -4.67,43.331 h -13.909 v 4.609 c 0,3.678 -2.991,6.669 -6.669,6.669 h -14.495 c -3.678,0 -6.669,-2.991 -6.669,-6.669 v -4.609 h -13.252 c -3.678,0 -6.669,-2.991 -6.669,-6.669 V 0 c 0,-3.678 2.991,-6.669 6.669,-6.669 h 7.306 9.278 38.41 C -0.992,-6.669 2,-3.678 2,0 v 36.662 c 0,3.678 -2.992,6.669 -6.67,6.669" /></g><g
           transform="translate(17.3112,29.6516)"
           id="g24"><path
             id="path26"
             style="fill:#009f82;fill-opacity:1;fill-rule:nonzero;stroke:none"
             d="M 0,0 0.001,0.257 C 0.002,0.76 -0.404,1.168 -0.906,1.17 -1.409,1.172 -1.818,0.765 -1.82,0.262 L -1.821,0.006 c -0.001,-0.503 0.405,-0.911 0.907,-0.914 0.252,0 0.48,0.1 0.645,0.264 C -0.104,-0.479 -0.001,-0.252 0,0 m 17.596,3.766 -2.06,-6.604 c -0.089,-0.286 -0.315,-0.511 -0.602,-0.599 l -6.617,-2.017 6.603,-2.06 c 0.287,-0.09 0.512,-0.315 0.6,-0.603 l 2.018,-6.616 2.059,6.603 c 0.045,0.144 0.124,0.272 0.227,0.374 0.104,0.104 0.233,0.182 0.376,0.226 l 6.616,2.017 -6.602,2.06 c -0.288,0.09 -0.513,0.315 -0.6,0.603 z m 0.881,3.354 2.738,-8.978 8.961,-2.795 c 0.382,-0.119 0.64,-0.473 0.64,-0.872 -0.002,-0.4 -0.263,-0.751 -0.645,-0.868 l -8.979,-2.739 -2.796,-8.961 c -0.044,-0.144 -0.123,-0.272 -0.226,-0.374 -0.167,-0.167 -0.397,-0.266 -0.645,-0.265 -0.399,0.002 -0.752,0.263 -0.868,0.645 l -2.738,8.979 -8.961,2.795 c -0.382,0.119 -0.641,0.472 -0.64,0.871 0.001,0.4 0.263,0.752 0.645,0.868 l 8.979,2.738 2.795,8.962 c 0.118,0.382 0.472,0.641 0.872,0.64 0.399,-0.002 0.751,-0.263 0.868,-0.646 m 14.505,4.881 h -0.256 c -0.503,0.002 -0.913,-0.404 -0.914,-0.907 0,-0.503 0.406,-0.912 0.908,-0.913 l 0.257,-10e-4 c 0.252,-10e-4 0.479,0.1 0.644,0.264 0.165,0.164 0.268,0.392 0.269,0.643 10e-4,0.504 -0.405,0.912 -0.908,0.914 m -25.566,-25.75 0.006,1.717 c 0.001,0.503 -0.405,0.912 -0.908,0.913 -0.503,10e-4 -0.911,-0.404 -0.913,-0.907 l -0.006,-1.718 -1.717,0.006 c -0.503,10e-4 -0.912,-0.406 -0.913,-0.908 -0.002,-0.502 0.404,-0.912 0.907,-0.914 l 1.717,-0.004 -0.005,-1.718 c -0.002,-0.503 0.404,-0.912 0.907,-0.913 0.503,-0.002 0.912,0.404 0.914,0.907 l 0.005,1.718 1.718,-0.006 c 0.251,0 0.479,0.1 0.644,0.265 0.166,0.164 0.268,0.391 0.269,0.643 0.002,0.503 -0.404,0.911 -0.907,0.913 z m 26.296,13.66 v -0.257 c -0.002,-0.502 0.404,-0.912 0.907,-0.913 0.251,-0.001 0.48,0.101 0.645,0.265 0.165,0.164 0.267,0.39 0.268,0.641 l 0.001,0.257 C 35.534,0.407 35.128,0.816 34.626,0.818 34.123,0.82 33.714,0.414 33.712,-0.089 m -4.197,4.772 c 10e-4,0.503 -0.406,0.911 -0.909,0.913 l -1.717,0.006 0.006,1.716 C 26.896,7.821 26.489,8.23 25.987,8.231 25.484,8.233 25.076,7.827 25.074,7.324 L 25.068,5.606 23.351,5.612 c -0.502,0.001 -0.912,-0.405 -0.914,-0.908 0,-0.502 0.406,-0.911 0.908,-0.913 L 25.062,3.786 25.058,2.068 c -0.002,-0.503 0.404,-0.911 0.907,-0.913 0.503,-0.002 0.911,0.406 0.913,0.908 l 0.005,1.717 1.718,-0.005 c 0.252,-10e-4 0.479,0.101 0.645,0.265 0.165,0.164 0.268,0.392 0.269,0.643 M 8.722,0.457 C 9.225,0.456 9.634,0.862 9.635,1.365 l 0.006,1.718 1.717,-0.006 c 0.251,-10e-4 0.48,0.101 0.645,0.265 0.165,0.164 0.268,0.391 0.268,0.643 10e-4,0.502 -0.404,0.911 -0.907,0.913 L 9.646,4.903 9.651,6.621 C 9.653,7.124 9.247,7.532 8.744,7.534 8.241,7.535 7.833,7.13 7.831,6.627 L 7.825,4.909 6.107,4.915 C 5.605,4.916 5.196,4.51 5.195,4.008 5.193,3.505 5.6,3.096 6.103,3.094 L 7.819,3.089 7.814,1.37 C 7.812,0.867 8.219,0.459 8.722,0.457 m 10.231,13.062 0.182,0.18 c 0.356,0.355 0.358,0.932 0.004,1.288 -0.355,0.357 -0.931,0.359 -1.287,0.004 l -0.183,-0.18 c -0.357,-0.355 -0.358,-0.931 -0.004,-1.289 0.355,-0.356 0.931,-0.358 1.288,-0.003 M 17.13,-22.716 c -0.503,0.002 -0.912,-0.405 -0.914,-0.907 -0.001,-0.503 0.405,-0.912 0.908,-0.914 h 0.257 c 0.251,-0.001 0.478,0.1 0.643,0.265 0.165,0.164 0.269,0.391 0.27,0.642 0.001,0.503 -0.405,0.912 -0.908,0.913 z m -9.5,-0.537 -0.001,-0.257 c -10e-4,-0.503 0.405,-0.912 0.907,-0.913 0.252,-0.001 0.481,0.1 0.646,0.264 0.165,0.164 0.267,0.391 0.268,0.643 l 0.001,0.257 c 0.002,0.502 -0.405,0.911 -0.908,0.912 -0.502,0.003 -0.911,-0.404 -0.913,-0.906 m -0.775,33.724 0.183,0.181 c 0.357,0.354 0.358,0.931 0.004,1.287 -0.355,0.357 -0.931,0.359 -1.287,0.004 L 5.572,11.763 C 5.216,11.408 5.215,10.832 5.569,10.476 5.923,10.119 6.499,10.116 6.855,10.471 M -0.86,-11.53 c -0.354,0.356 -0.352,0.932 0.005,1.287 l 0.181,0.18 C -0.317,-9.708 0.26,-9.71 0.613,-10.066 0.968,-10.423 0.966,-11 0.61,-11.354 l -0.182,-0.181 c -0.357,-0.354 -0.934,-0.352 -1.288,0.005" /></g><g
           transform="translate(44.3922,11.4534)"
           id="g28"><path
             id="path30"
             style="fill:#009f82;fill-opacity:1;fill-rule:nonzero;stroke:none"
             d="M 0,0 C 0.503,-0.002 0.912,0.404 0.914,0.907 L 0.919,2.625 2.637,2.62 C 2.889,2.619 3.116,2.72 3.281,2.885 3.447,3.049 3.55,3.276 3.55,3.527 3.552,4.03 3.146,4.438 2.643,4.44 L 0.925,4.446 0.931,6.163 C 0.932,6.666 0.525,7.075 0.022,7.076 -0.479,7.078 -0.889,6.672 -0.891,6.169 L -0.896,4.451 -2.613,4.457 C -3.116,4.458 -3.524,4.052 -3.526,3.55 -3.528,3.047 -3.121,2.638 -2.618,2.636 L -0.901,2.631 -0.907,0.913 C -0.908,0.41 -0.503,0.001 0,0" /></g><g
           transform="translate(49.4244,22.427)"
           id="g32"><path
             id="path34"
             style="fill:#009f82;fill-opacity:1;fill-rule:nonzero;stroke:none"
             d="m 0,0 -0.001,-0.257 c -0.002,-0.502 0.404,-0.912 0.907,-0.913 0.251,-0.001 0.48,0.101 0.645,0.265 0.165,0.164 0.268,0.39 0.268,0.641 L 1.82,-0.007 C 1.822,0.496 1.416,0.905 0.914,0.907 0.41,0.909 0.002,0.503 0,0" /></g></g></g></g></svg>