<?xml version="1.0" encoding="UTF-8" standalone="no"?>
<svg
   xmlns:dc="http://purl.org/dc/elements/1.1/"
   xmlns:cc="http://creativecommons.org/ns#"
   xmlns:rdf="http://www.w3.org/1999/02/22-rdf-syntax-ns#"
   xmlns:svg="http://www.w3.org/2000/svg"
   xmlns="http://www.w3.org/2000/svg"
   viewBox="0 0 92.912003 69.858536"
   height="69.858536"
   width="92.912003"
   xml:space="preserve"
   id="svg2"
   version="1.1"><metadata
     id="metadata8"><rdf:RDF><cc:Work
         rdf:about=""><dc:format>image/svg+xml</dc:format><dc:type
           rdf:resource="http://purl.org/dc/dcmitype/StillImage" /></cc:Work></rdf:RDF></metadata><defs
     id="defs6"><clipPath
       id="clipPath18"
       clipPathUnits="userSpaceOnUse"><path
         id="path16"
         d="M 0,52.394 H 69.684 V 0 H 0 Z" /></clipPath></defs><g
     transform="matrix(1.3333333,0,0,-1.3333333,0,69.858533)"
     id="g10"><g
       id="g12"><g
         clip-path="url(#clipPath18)"
         id="g14"><g
           transform="translate(16.4736,21.4155)"
           id="g20"><path
             id="path22"
             style="fill:#009f82;fill-opacity:1;fill-rule:nonzero;stroke:none"
             d="M 0,0 C 0,0.77 -0.63,1.399 -1.4,1.399 -2.17,1.399 -2.8,0.77 -2.8,0 c 0,-0.771 0.63,-1.4 1.4,-1.4 0.77,0 1.4,0.629 1.4,1.4 M 9.21,4.6 C 9.21,5.37 8.58,6 7.8,6 7.029,6 6.399,5.37 6.399,4.6 c 0,-0.77 0.63,-1.4 1.401,-1.4 0.78,0 1.41,0.63 1.41,1.4 m 9.2,9.21 c 0,0.77 -0.631,1.4 -1.4,1.4 -0.771,0 -1.401,-0.63 -1.401,-1.4 0,-0.77 0.63,-1.4 1.401,-1.4 0.769,0 1.4,0.63 1.4,1.4 m 9.21,-8.06 c 0,0.779 -0.631,1.399 -1.41,1.399 -0.771,0 -1.4,-0.62 -1.4,-1.399 0,-0.771 0.629,-1.4 1.4,-1.4 0.779,0 1.41,0.629 1.41,1.4 m 9.199,12.66 c 0,0.77 -0.63,1.4 -1.399,1.4 -0.771,0 -1.4,-0.63 -1.4,-1.4 0,-0.77 0.629,-1.4 1.4,-1.4 0.769,0 1.399,0.63 1.399,1.4 m -1.409,3.199 c 1.77,0 3.21,-1.439 3.21,-3.199 0,-1.77 -1.44,-3.2 -3.21,-3.2 -0.301,0 -0.61,0.04 -0.91,0.13 l -0.17,0.05 -5.58,-7.68 0.1,-0.15 c 0.37,-0.531 0.56,-1.161 0.56,-1.81 0,-1.761 -1.431,-3.2 -3.2,-3.2 -1.771,0 -3.2,1.439 -3.2,3.2 0,0.41 0.08,0.81 0.229,1.189 L 23.3,7.1 l -4.571,4 -0.16,-0.08 C 17.68,10.51 16.56,10.47 15.63,10.92 L 15.47,10.989 10.609,6.14 10.689,5.979 C 10.899,5.55 11,5.08 11,4.6 11,2.84 9.569,1.399 7.8,1.399 6.97,1.399 6.18,1.72 5.58,2.3 L 5.45,2.42 1.75,0.569 1.77,0.399 C 1.79,0.27 1.8,0.13 1.8,0 c 0,-1.771 -1.441,-3.2 -3.2,-3.2 -1.77,0 -3.21,1.429 -3.21,3.2 0,1.76 1.44,3.2 3.21,3.2 0.83,0 1.62,-0.32 2.219,-0.9 L 0.939,2.18 4.64,4.029 4.62,4.21 C 4.609,4.34 4.6,4.47 4.6,4.6 c 0,1.77 1.429,3.2 3.2,3.2 0.479,0 0.95,-0.1 1.38,-0.311 l 0.16,-0.069 4.849,4.85 -0.069,0.16 c -0.21,0.429 -0.32,0.889 -0.32,1.38 0,1.759 1.439,3.2 3.21,3.2 1.76,0 3.2,-1.441 3.2,-3.2 0,-0.411 -0.08,-0.81 -0.231,-1.19 l -0.069,-0.16 4.579,-4 0.151,0.08 c 0.75,0.42 1.66,0.52 2.48,0.279 l 0.17,-0.049 5.59,7.68 -0.101,0.15 c -0.369,0.53 -0.569,1.16 -0.569,1.81 0,1.76 1.439,3.199 3.2,3.199" /></g><g
           transform="translate(67.7979,12.731)"
           id="g24"><path
             id="path26"
             style="fill:#171717;fill-opacity:1;fill-rule:nonzero;stroke:none"
             d="m 0,0 h -15.009 v 18.392 c 0,0.496 -0.404,0.9 -0.901,0.9 -0.496,0 -0.9,-0.404 -0.9,-0.9 V 0 h -7.404 v 5.734 c 0,0.497 -0.404,0.902 -0.9,0.902 -0.496,0 -0.901,-0.405 -0.901,-0.902 V 0 h -7.399 v 13.785 c 0,0.5 -0.41,0.901 -0.9,0.901 -0.5,0 -0.911,-0.401 -0.911,-0.901 V 0 h -7.399 v 4.584 c 0,0.496 -0.404,0.9 -0.9,0.9 -0.497,0 -0.901,-0.404 -0.901,-0.9 V 0 h -7.407 c -0.005,0.23 -0.097,0.456 -0.26,0.619 -0.336,0.334 -0.939,0.334 -1.275,0 C -53.529,0.456 -53.621,0.23 -53.626,0 h -12.285 v 36.064 c 0,0.945 0.767,1.712 1.712,1.712 H -1.713 C -0.769,37.776 0,37.009 0,36.064 Z m 0,-2.947 c 0,-0.944 -0.769,-1.712 -1.713,-1.712 h -62.486 c -0.945,0 -1.712,0.768 -1.712,1.712 v 1.061 H 0 Z m -22.712,-7.898 h -20.59 v 4.3 h 20.59 z m 20.999,50.508 h -62.486 c -1.985,0 -3.599,-1.615 -3.599,-3.599 V -2.947 c 0,-1.984 1.614,-3.598 3.599,-3.598 h 19.011 v -4.301 h -3.615 c -0.52,0 -0.943,-0.422 -0.943,-0.942 0,-0.521 0.423,-0.943 0.943,-0.943 h 31.592 c 0.521,0 0.943,0.422 0.943,0.943 0,0.52 -0.422,0.942 -0.943,0.942 h -3.614 v 4.301 h 19.112 c 1.984,0 3.599,1.614 3.599,3.598 v 39.011 c 0,1.984 -1.615,3.599 -3.599,3.599" /></g></g></g></g></svg>